<?xml version="1.0" encoding="utf-8" standalone="no"?>
<!DOCTYPE svg PUBLIC "-//W3C//DTD SVG 1.1//EN"
  "http://www.w3.org/Graphics/SVG/1.1/DTD/svg11.dtd">
<!-- Created with matplotlib (https://matplotlib.org/) -->
<svg height="504pt" version="1.1" viewBox="0 0 648 504" width="648pt" xmlns="http://www.w3.org/2000/svg" xmlns:xlink="http://www.w3.org/1999/xlink">
 <defs>
  <style type="text/css">
*{stroke-linecap:butt;stroke-linejoin:round;}
  </style>
 </defs>
 <g id="figure_1">
  <g id="patch_1">
   <path d="M 0 504 
L 648 504 
L 648 0 
L 0 0 
z
" style="fill:#ffffff;"/>
  </g>
  <g id="axes_1">
   <g id="patch_2">
    <path d="M 81 448.56 
L 583.2 448.56 
L 583.2 60.48 
L 81 60.48 
z
" style="fill:#ffffff;"/>
   </g>
   <g id="matplotlib.axis_1">
    <g id="xtick_1">
     <g id="line2d_1">
      <defs>
       <path d="M 0 0 
L 0 3.5 
" id="mb946bed661" style="stroke:#000000;stroke-width:0.8;"/>
      </defs>
      <g>
       <use style="stroke:#000000;stroke-width:0.8;" x="103.827273" xlink:href="#mb946bed661" y="448.56"/>
      </g>
     </g>
     <g id="text_1">
      <!-- 0 -->
      <defs>
       <path d="M 3.125 29.296875 
Q 3.90625 50 6.4375 56.046875 
Q 8.984375 62.109375 13.671875 66.015625 
Q 18.359375 69.921875 25.1875 69.921875 
Q 32.03125 69.921875 37.109375 64.25 
Q 42.1875 58.59375 43.75 50 
Q 45.3125 41.40625 44.71875 30.265625 
Q 44.140625 19.140625 40.8125 12.109375 
Q 37.5 5.078125 30.859375 2.34375 
Q 24.21875 -0.390625 17.578125 2.921875 
Q 10.9375 6.25 8.203125 11.71875 
Q 5.46875 17.1875 4.296875 23.234375 
Q 3.125 29.296875 3.90625 50 
z
M 12.890625 52.734375 
Q 10.546875 31.25 12.5 22.84375 
Q 14.453125 14.453125 18.9375 10.9375 
Q 23.4375 7.421875 28.125 9.5625 
Q 32.8125 11.71875 34.953125 18.15625 
Q 37.109375 24.609375 37.109375 32.21875 
Q 37.109375 39.84375 36.515625 46.09375 
Q 35.9375 52.34375 33 57.421875 
Q 30.078125 62.5 25.1875 62.6875 
Q 20.3125 62.890625 16.59375 57.8125 
Q 12.890625 52.734375 10.546875 31.25 
z
" id="KaiTi-48"/>
      </defs>
      <g transform="translate(99.327273 467.935)scale(0.18 -0.18)">
       <use xlink:href="#KaiTi-48"/>
      </g>
     </g>
    </g>
    <g id="xtick_2">
     <g id="line2d_2">
      <g>
       <use style="stroke:#000000;stroke-width:0.8;" x="212.528571" xlink:href="#mb946bed661" y="448.56"/>
      </g>
     </g>
     <g id="text_2">
      <!-- 5 -->
      <defs>
       <path d="M 8.59375 20.703125 
Q 11.328125 10.15625 17.96875 8.984375 
Q 24.609375 7.8125 28.703125 10.34375 
Q 32.8125 12.890625 34.5625 16.984375 
Q 36.328125 21.09375 36.125 26.171875 
Q 35.9375 31.25 33.390625 34.765625 
Q 30.859375 38.28125 26.953125 39.453125 
Q 23.046875 40.625 18.15625 39.453125 
Q 13.28125 38.28125 10.15625 33.984375 
L 3.515625 34.765625 
Q 4.296875 37.109375 10.9375 68.359375 
L 41.796875 68.359375 
L 41.796875 61.328125 
L 16.796875 61.328125 
Q 14.84375 50.78125 12.890625 44.53125 
Q 18.75 47.265625 23.828125 47.0625 
Q 28.90625 46.875 33.59375 44.71875 
Q 38.28125 42.578125 40.421875 38.859375 
Q 42.578125 35.15625 43.546875 31.4375 
Q 44.53125 27.734375 44.328125 23.4375 
Q 44.140625 19.140625 42.578125 14.640625 
Q 41.015625 10.15625 37.890625 7.21875 
Q 34.765625 4.296875 30.265625 2.53125 
Q 25.78125 0.78125 19.921875 1.171875 
Q 14.0625 1.5625 8.78125 5.46875 
Q 3.515625 9.375 1.5625 18.75 
z
" id="KaiTi-53"/>
      </defs>
      <g transform="translate(208.028571 467.935)scale(0.18 -0.18)">
       <use xlink:href="#KaiTi-53"/>
      </g>
     </g>
    </g>
    <g id="xtick_3">
     <g id="line2d_3">
      <g>
       <use style="stroke:#000000;stroke-width:0.8;" x="321.22987" xlink:href="#mb946bed661" y="448.56"/>
      </g>
     </g>
     <g id="text_3">
      <!-- 10 -->
      <defs>
       <path d="M 21.875 56.25 
Q 16.796875 51.171875 8.984375 46.484375 
L 8.984375 53.90625 
Q 18.75 60.546875 25 69.53125 
L 29.6875 69.53125 
L 29.6875 2.34375 
L 21.875 2.34375 
z
" id="KaiTi-49"/>
      </defs>
      <g transform="translate(312.22987 467.935)scale(0.18 -0.18)">
       <use xlink:href="#KaiTi-49"/>
       <use x="50" xlink:href="#KaiTi-48"/>
      </g>
     </g>
    </g>
    <g id="xtick_4">
     <g id="line2d_4">
      <g>
       <use style="stroke:#000000;stroke-width:0.8;" x="429.931169" xlink:href="#mb946bed661" y="448.56"/>
      </g>
     </g>
     <g id="text_4">
      <!-- 15 -->
      <g transform="translate(420.931169 467.935)scale(0.18 -0.18)">
       <use xlink:href="#KaiTi-49"/>
       <use x="50" xlink:href="#KaiTi-53"/>
      </g>
     </g>
    </g>
    <g id="xtick_5">
     <g id="line2d_5">
      <g>
       <use style="stroke:#000000;stroke-width:0.8;" x="538.632468" xlink:href="#mb946bed661" y="448.56"/>
      </g>
     </g>
     <g id="text_5">
      <!-- 20 -->
      <defs>
       <path d="M 4.6875 3.90625 
Q 5.078125 9.765625 10.15625 14.453125 
Q 15.234375 19.140625 23.046875 29.09375 
Q 30.859375 39.0625 33.203125 44.53125 
Q 35.546875 50 34.953125 53.90625 
Q 34.375 57.8125 31.25 60.34375 
Q 28.125 62.890625 24.015625 62.5 
Q 19.921875 62.109375 16.203125 59.375 
Q 12.5 56.640625 10.546875 51.171875 
L 3.125 52.34375 
Q 6.25 61.328125 11.125 65.421875 
Q 16.015625 69.53125 22.65625 69.921875 
Q 26.5625 70.3125 29.6875 69.71875 
Q 32.8125 69.140625 36.125 66.984375 
Q 39.453125 64.84375 41.59375 60.546875 
Q 43.75 56.25 43.15625 50.1875 
Q 42.578125 44.140625 37.109375 35.734375 
Q 31.640625 27.34375 16.015625 9.375 
L 44.140625 9.375 
L 44.140625 2.34375 
L 4.6875 2.34375 
z
" id="KaiTi-50"/>
      </defs>
      <g transform="translate(529.632468 467.935)scale(0.18 -0.18)">
       <use xlink:href="#KaiTi-50"/>
       <use x="50" xlink:href="#KaiTi-48"/>
      </g>
     </g>
    </g>
    <g id="text_6">
     <!-- Epoch -->
     <defs>
      <path d="M 45.3125 1.953125 
L 5.46875 1.953125 
L 5.46875 68.75 
L 43.359375 68.75 
L 43.359375 61.328125 
L 14.453125 61.328125 
L 14.453125 40.625 
L 41.015625 40.625 
L 41.015625 33.203125 
L 14.453125 33.203125 
L 14.453125 9.375 
L 45.3125 9.375 
z
" id="KaiTi-69"/>
      <path d="M 44.140625 23.828125 
Q 44.140625 12.5 38.671875 6.640625 
Q 33.203125 0.78125 25.390625 0.78125 
Q 21.09375 0.78125 17.96875 2.53125 
Q 14.84375 4.296875 12.5 7.8125 
L 12.5 -12.5 
L 4.6875 -12.5 
L 4.6875 45.703125 
L 12.5 45.703125 
L 12.5 39.84375 
Q 14.84375 43.359375 17.96875 44.921875 
Q 21.09375 46.484375 25.390625 46.484375 
Q 33.203125 46.484375 38.671875 40.8125 
Q 44.140625 35.15625 44.140625 23.828125 
z
M 35.546875 23.828125 
Q 35.546875 31.25 32.609375 35.34375 
Q 29.6875 39.453125 23.828125 39.453125 
Q 19.140625 39.453125 15.8125 35.34375 
Q 12.5 31.25 12.5 23.828125 
Q 12.5 16.40625 15.8125 12.109375 
Q 19.140625 7.8125 23.828125 7.8125 
Q 29.6875 7.8125 32.609375 12.109375 
Q 35.546875 16.40625 35.546875 23.828125 
z
" id="KaiTi-112"/>
      <path d="M 45.703125 23.828125 
Q 45.703125 13.671875 39.453125 7.421875 
Q 33.203125 1.171875 24.609375 1.171875 
Q 16.015625 1.171875 9.765625 7.421875 
Q 3.515625 13.671875 3.515625 23.828125 
Q 3.515625 33.984375 9.765625 40.234375 
Q 16.015625 46.484375 24.609375 46.484375 
Q 33.203125 46.484375 39.453125 40.234375 
Q 45.703125 33.984375 45.703125 23.828125 
z
M 37.109375 23.828125 
Q 37.109375 31.640625 33.203125 35.546875 
Q 29.296875 39.453125 24.609375 39.453125 
Q 19.921875 39.453125 16.015625 35.546875 
Q 12.109375 31.640625 12.109375 23.828125 
Q 12.109375 16.015625 16.015625 12.109375 
Q 19.921875 8.203125 24.609375 8.203125 
Q 29.296875 8.203125 33.203125 12.109375 
Q 37.109375 16.015625 37.109375 23.828125 
z
" id="KaiTi-111"/>
      <path d="M 44.53125 19.53125 
Q 44.53125 11.328125 38.859375 6.25 
Q 33.203125 1.171875 24.609375 1.171875 
Q 16.015625 1.171875 9.765625 7.21875 
Q 3.515625 13.28125 3.515625 23.828125 
Q 3.515625 34.375 9.765625 40.421875 
Q 16.015625 46.484375 24.609375 46.484375 
Q 33.203125 46.484375 38.28125 41.984375 
Q 43.359375 37.5 43.359375 31.25 
L 34.765625 31.25 
Q 34.375 35.9375 31.4375 37.6875 
Q 28.515625 39.453125 24.609375 39.453125 
Q 19.921875 39.453125 16.015625 35.734375 
Q 12.109375 32.03125 12.109375 23.828125 
Q 12.109375 15.625 16.015625 11.90625 
Q 19.921875 8.203125 24.609375 8.203125 
Q 29.6875 8.203125 32.8125 10.9375 
Q 35.9375 13.671875 35.9375 19.53125 
z
" id="KaiTi-99"/>
      <path d="M 43.75 1.953125 
L 35.9375 1.953125 
L 35.9375 30.078125 
Q 35.9375 34.765625 33.59375 37.5 
Q 31.25 40.234375 27.34375 40.234375 
Q 22.265625 40.234375 17.765625 34.953125 
Q 13.28125 29.6875 13.28125 21.875 
L 13.28125 1.953125 
L 5.46875 1.953125 
L 5.46875 68.75 
L 13.28125 68.75 
L 13.28125 37.5 
Q 16.40625 41.796875 20.109375 44.140625 
Q 23.828125 46.484375 29.6875 46.484375 
Q 36.71875 46.484375 40.234375 42.578125 
Q 43.75 38.671875 43.75 32.8125 
z
" id="KaiTi-104"/>
     </defs>
     <g transform="translate(309.6 486.56)scale(0.18 -0.18)">
      <use xlink:href="#KaiTi-69"/>
      <use x="50" xlink:href="#KaiTi-112"/>
      <use x="100" xlink:href="#KaiTi-111"/>
      <use x="150" xlink:href="#KaiTi-99"/>
      <use x="200" xlink:href="#KaiTi-104"/>
     </g>
    </g>
   </g>
   <g id="matplotlib.axis_2">
    <g id="ytick_1">
     <g id="line2d_6">
      <defs>
       <path d="M 0 0 
L -3.5 0 
" id="m2fd8a220c5" style="stroke:#000000;stroke-width:0.8;"/>
      </defs>
      <g>
       <use style="stroke:#000000;stroke-width:0.8;" x="81" xlink:href="#m2fd8a220c5" y="400.725406"/>
      </g>
     </g>
     <g id="text_7">
      <!-- 0.2 -->
      <defs>
       <path d="M 12.5 1.171875 
Q 10.546875 1.171875 8.78125 2.53125 
Q 7.03125 3.90625 7.03125 6.640625 
Q 7.03125 8.984375 8.390625 10.34375 
Q 9.765625 11.71875 12.5 12.109375 
Q 15.234375 12.109375 16.59375 10.546875 
Q 17.96875 8.984375 17.96875 6.640625 
Q 17.96875 3.90625 16.40625 2.53125 
Q 14.84375 1.171875 12.5 1.171875 
z
" id="KaiTi-46"/>
      </defs>
      <g transform="translate(47 406.912906)scale(0.18 -0.18)">
       <use xlink:href="#KaiTi-48"/>
       <use x="50" xlink:href="#KaiTi-46"/>
       <use x="100" xlink:href="#KaiTi-50"/>
      </g>
     </g>
    </g>
    <g id="ytick_2">
     <g id="line2d_7">
      <g>
       <use style="stroke:#000000;stroke-width:0.8;" x="81" xlink:href="#m2fd8a220c5" y="349.871354"/>
      </g>
     </g>
     <g id="text_8">
      <!-- 0.3 -->
      <defs>
       <path d="M 3.90625 19.140625 
L 10.9375 20.3125 
Q 12.5 15.234375 16.015625 11.90625 
Q 19.53125 8.59375 24.796875 8.78125 
Q 30.078125 8.984375 33.203125 13.078125 
Q 36.328125 17.1875 35.9375 22.453125 
Q 35.546875 27.734375 31.828125 30.65625 
Q 28.125 33.59375 19.921875 34.765625 
L 19.921875 39.84375 
Q 28.125 40.625 31.828125 44.140625 
Q 35.546875 47.65625 35.15625 53.3125 
Q 34.765625 58.984375 30.078125 61.515625 
Q 25.390625 64.0625 20.109375 62.109375 
Q 14.84375 60.15625 11.71875 51.171875 
L 4.6875 52.34375 
Q 7.03125 59.375 11.125 64.0625 
Q 15.234375 68.75 22.265625 69.53125 
Q 29.296875 70.3125 34.5625 67.765625 
Q 39.84375 65.234375 41.984375 59.953125 
Q 44.140625 54.6875 42.578125 48.4375 
Q 41.015625 42.1875 33.59375 37.5 
Q 39.0625 35.15625 41.984375 30.46875 
Q 44.921875 25.78125 43.9375 18.15625 
Q 42.96875 10.546875 37.109375 5.859375 
Q 31.25 1.171875 23.828125 1.359375 
Q 16.40625 1.5625 10.9375 6.046875 
Q 5.46875 10.546875 3.90625 19.140625 
z
" id="KaiTi-51"/>
      </defs>
      <g transform="translate(47 356.058854)scale(0.18 -0.18)">
       <use xlink:href="#KaiTi-48"/>
       <use x="50" xlink:href="#KaiTi-46"/>
       <use x="100" xlink:href="#KaiTi-51"/>
      </g>
     </g>
    </g>
    <g id="ytick_3">
     <g id="line2d_8">
      <g>
       <use style="stroke:#000000;stroke-width:0.8;" x="81" xlink:href="#m2fd8a220c5" y="299.017302"/>
      </g>
     </g>
     <g id="text_9">
      <!-- 0.4 -->
      <defs>
       <path d="M 31.25 17.1875 
L 1.171875 17.1875 
L 1.171875 23.828125 
L 32.8125 69.53125 
L 38.671875 69.53125 
L 38.671875 23.828125 
L 48.046875 23.828125 
L 48.046875 17.1875 
L 38.671875 17.1875 
L 38.671875 2.34375 
L 31.25 2.34375 
z
M 31.25 23.828125 
L 31.25 54.6875 
L 9.375 23.828125 
z
" id="KaiTi-52"/>
      </defs>
      <g transform="translate(47 305.204802)scale(0.18 -0.18)">
       <use xlink:href="#KaiTi-48"/>
       <use x="50" xlink:href="#KaiTi-46"/>
       <use x="100" xlink:href="#KaiTi-52"/>
      </g>
     </g>
    </g>
    <g id="ytick_4">
     <g id="line2d_9">
      <g>
       <use style="stroke:#000000;stroke-width:0.8;" x="81" xlink:href="#m2fd8a220c5" y="248.16325"/>
      </g>
     </g>
     <g id="text_10">
      <!-- 0.5 -->
      <g transform="translate(47 254.35075)scale(0.18 -0.18)">
       <use xlink:href="#KaiTi-48"/>
       <use x="50" xlink:href="#KaiTi-46"/>
       <use x="100" xlink:href="#KaiTi-53"/>
      </g>
     </g>
    </g>
    <g id="ytick_5">
     <g id="line2d_10">
      <g>
       <use style="stroke:#000000;stroke-width:0.8;" x="81" xlink:href="#m2fd8a220c5" y="197.309197"/>
      </g>
     </g>
     <g id="text_11">
      <!-- 0.6 -->
      <defs>
       <path d="M 3.515625 19.53125 
Q 4.296875 30.859375 6.046875 34.765625 
Q 7.8125 38.671875 11.328125 44.53125 
L 27.34375 69.53125 
L 36.328125 69.53125 
L 19.921875 43.75 
Q 30.46875 46.484375 36.71875 42.96875 
Q 42.96875 39.453125 45.109375 34.953125 
Q 47.265625 30.46875 47.453125 25.1875 
Q 47.65625 19.921875 45.890625 14.84375 
Q 44.140625 9.765625 39.640625 5.65625 
Q 35.15625 1.5625 27.140625 1.171875 
Q 19.140625 0.78125 13.46875 4.09375 
Q 7.8125 7.421875 5.65625 13.46875 
Q 3.515625 19.53125 4.296875 30.859375 
z
M 12.5 16.015625 
Q 19.53125 8.59375 25.390625 8.203125 
Q 31.25 7.8125 35.15625 12.109375 
Q 39.0625 16.40625 39.0625 24.609375 
Q 39.0625 32.8125 34.171875 35.9375 
Q 29.296875 39.0625 23.234375 38.28125 
Q 17.1875 37.5 14.453125 32.421875 
Q 11.71875 27.34375 12.109375 21.671875 
Q 12.5 16.015625 19.53125 8.59375 
z
" id="KaiTi-54"/>
      </defs>
      <g transform="translate(47 203.496697)scale(0.18 -0.18)">
       <use xlink:href="#KaiTi-48"/>
       <use x="50" xlink:href="#KaiTi-46"/>
       <use x="100" xlink:href="#KaiTi-54"/>
      </g>
     </g>
    </g>
    <g id="ytick_6">
     <g id="line2d_11">
      <g>
       <use style="stroke:#000000;stroke-width:0.8;" x="81" xlink:href="#m2fd8a220c5" y="146.455145"/>
      </g>
     </g>
     <g id="text_12">
      <!-- 0.7 -->
      <defs>
       <path d="M 13.28125 2.34375 
Q 20.3125 32.03125 37.890625 61.328125 
L 4.296875 61.328125 
L 4.296875 68.359375 
L 46.09375 68.359375 
L 46.09375 61.71875 
Q 27.734375 32.03125 21.875 2.34375 
L 13.28125 2.34375 
z
" id="KaiTi-55"/>
      </defs>
      <g transform="translate(47 152.642645)scale(0.18 -0.18)">
       <use xlink:href="#KaiTi-48"/>
       <use x="50" xlink:href="#KaiTi-46"/>
       <use x="100" xlink:href="#KaiTi-55"/>
      </g>
     </g>
    </g>
    <g id="ytick_7">
     <g id="line2d_12">
      <g>
       <use style="stroke:#000000;stroke-width:0.8;" x="81" xlink:href="#m2fd8a220c5" y="95.601093"/>
      </g>
     </g>
     <g id="text_13">
      <!-- 0.8 -->
      <defs>
       <path d="M 2.734375 16.796875 
Q 2.734375 26.171875 5.078125 30.65625 
Q 7.421875 35.15625 12.890625 37.890625 
Q 8.203125 40.625 6.640625 43.9375 
Q 5.078125 47.265625 4.875 51.5625 
Q 4.6875 55.859375 6.046875 58.984375 
Q 7.421875 62.109375 10.15625 64.84375 
Q 12.890625 67.578125 16.203125 68.546875 
Q 19.53125 69.53125 23.4375 69.53125 
Q 27.34375 69.53125 30.46875 68.75 
Q 33.59375 67.96875 37.109375 65.421875 
Q 40.625 62.890625 42.1875 58.203125 
Q 43.75 53.515625 41.984375 47.265625 
Q 40.234375 41.015625 32.8125 37.5 
Q 39.453125 35.546875 42.1875 31.4375 
Q 44.921875 27.34375 44.921875 21.484375 
Q 44.921875 15.625 43.15625 12.109375 
Q 41.40625 8.59375 39.25 6.25 
Q 37.109375 3.90625 33.390625 2.53125 
Q 29.6875 1.171875 24.015625 1.171875 
Q 18.359375 1.171875 14.25 2.53125 
Q 10.15625 3.90625 7.421875 6.640625 
Q 4.6875 9.375 3.703125 13.078125 
Q 2.734375 16.796875 2.734375 26.171875 
z
M 10.9375 26.5625 
Q 10.546875 17.1875 12.296875 13.671875 
Q 14.0625 10.15625 18.75 9.171875 
Q 23.4375 8.203125 28.515625 9.375 
Q 33.59375 10.546875 35.546875 14.84375 
Q 37.5 19.140625 36.90625 23.4375 
Q 36.328125 27.734375 32.03125 30.65625 
Q 27.734375 33.59375 22.65625 33.203125 
Q 17.578125 32.8125 14.25 29.6875 
Q 10.9375 26.5625 10.546875 17.1875 
z
M 12.109375 56.25 
Q 12.109375 48.4375 14.84375 44.921875 
Q 17.578125 41.40625 23.4375 41.40625 
Q 29.296875 41.40625 32.21875 44.921875 
Q 35.15625 48.4375 34.953125 53.3125 
Q 34.765625 58.203125 31.4375 60.546875 
Q 28.125 62.890625 22.453125 62.5 
Q 16.796875 62.109375 14.453125 59.171875 
Q 12.109375 56.25 12.109375 48.4375 
z
" id="KaiTi-56"/>
      </defs>
      <g transform="translate(47 101.788593)scale(0.18 -0.18)">
       <use xlink:href="#KaiTi-48"/>
       <use x="50" xlink:href="#KaiTi-46"/>
       <use x="100" xlink:href="#KaiTi-56"/>
      </g>
     </g>
    </g>
    <g id="text_14">
     <!-- 准确率 -->
     <defs>
      <path d="M 63.671875 49.21875 
Q 60.15625 48.828125 57.21875 48.4375 
Q 54.296875 48.046875 51.75 49.21875 
Q 49.21875 50.390625 54.09375 51.5625 
Q 58.984375 52.734375 65.03125 54.484375 
Q 71.09375 56.25 74.796875 57.609375 
Q 78.515625 58.984375 81.25 57.8125 
Q 83.984375 56.640625 81.640625 55.078125 
Q 79.296875 53.515625 68.75 50.390625 
Q 70.3125 48.046875 70.109375 46.671875 
Q 69.921875 45.3125 69.53125 41.40625 
Q 74.609375 42.578125 76.953125 42.96875 
Q 79.296875 43.359375 81.25 41.59375 
Q 83.203125 39.84375 81.640625 39.0625 
Q 80.078125 38.28125 76.5625 37.6875 
Q 73.046875 37.109375 69.53125 36.328125 
Q 69.140625 32.03125 69.140625 27.34375 
Q 74.609375 28.515625 76.953125 29.09375 
Q 79.296875 29.6875 81.4375 27.734375 
Q 83.59375 25.78125 80.65625 25.1875 
Q 77.734375 24.609375 69.140625 23.046875 
Q 69.140625 18.359375 68.75 13.28125 
Q 78.515625 14.453125 83.203125 15.03125 
Q 87.890625 15.625 90.625 12.296875 
Q 93.359375 8.984375 87.890625 9.375 
Q 82.421875 9.765625 76.5625 9.375 
Q 70.703125 8.984375 65.8125 8.390625 
Q 60.9375 7.8125 57.03125 7.03125 
Q 53.125 6.25 49.21875 7.03125 
Q 48.828125 -3.90625 47.265625 -7.21875 
Q 45.703125 -10.546875 43.359375 -5.265625 
Q 41.015625 0 42.1875 3.90625 
Q 43.359375 7.8125 43.9375 14.640625 
Q 44.53125 21.484375 45.109375 34.953125 
Q 45.703125 48.4375 44.140625 50.78125 
Q 37.109375 42.1875 32.421875 39.453125 
Q 27.734375 36.71875 31.4375 40.8125 
Q 35.15625 44.921875 39.25 51.5625 
Q 43.359375 58.203125 46.09375 63.859375 
Q 48.828125 69.53125 49.796875 73.4375 
Q 50.78125 77.34375 50.1875 79.484375 
Q 49.609375 81.640625 52.734375 80.265625 
Q 55.859375 78.90625 57.8125 77.140625 
Q 59.765625 75.390625 58.390625 74.015625 
Q 57.03125 72.65625 54.875 68.75 
Q 52.734375 64.84375 46.09375 53.515625 
Q 49.609375 50 49.609375 46.484375 
Q 49.609375 42.96875 49.40625 35.546875 
Q 49.21875 28.125 49.21875 9.765625 
Q 57.03125 10.9375 64.0625 12.5 
L 64.0625 21.875 
Q 58.984375 21.09375 56.640625 21.28125 
Q 54.296875 21.484375 52.34375 22.84375 
Q 50.390625 24.21875 54.296875 24.609375 
Q 58.203125 25 64.0625 26.171875 
L 64.0625 35.15625 
Q 59.375 34.765625 57.421875 34.765625 
Q 55.859375 34.765625 53.90625 36.125 
Q 51.953125 37.5 54.875 37.890625 
Q 57.8125 38.28125 64.0625 39.84375 
Q 64.0625 44.53125 63.671875 49.21875 
z
M 32.03125 36.328125 
Q 37.109375 41.40625 29.09375 29.296875 
Q 21.09375 17.1875 18.359375 9.953125 
Q 15.625 2.734375 12.6875 10.734375 
Q 9.765625 18.75 12.5 18.9375 
Q 15.234375 19.140625 21.09375 25.1875 
Q 26.953125 31.25 32.03125 36.328125 
z
M 15.234375 57.421875 
Q 10.546875 63.28125 16.203125 62.109375 
Q 21.875 60.9375 25 58.59375 
Q 28.125 56.25 27.34375 52.34375 
Q 26.5625 48.4375 23.234375 50.1875 
Q 19.921875 51.953125 15.234375 57.421875 
z
M 61.328125 67.96875 
Q 58.984375 71.09375 60.15625 71.875 
Q 61.328125 72.65625 66.203125 71.09375 
Q 71.09375 69.53125 71.875 66.59375 
Q 72.65625 63.671875 71.484375 61.90625 
Q 70.3125 60.15625 66.984375 62.6875 
Q 63.671875 65.234375 61.328125 67.96875 
z
" id="KaiTi-20934"/>
      <path d="M 61.71875 62.890625 
Q 56.25 55.078125 50.390625 51.359375 
Q 44.53125 47.65625 48.625 51.953125 
Q 52.734375 56.25 57.421875 65.03125 
Q 62.109375 73.828125 61.125 76.75 
Q 60.15625 79.6875 62.6875 79.09375 
Q 65.234375 78.515625 67.765625 76.75 
Q 70.3125 75 69.140625 74.015625 
Q 67.96875 73.046875 66.40625 70.3125 
Q 64.84375 67.578125 62.5 64.453125 
Q 66.015625 64.453125 70.5 65.625 
Q 75 66.796875 76.171875 68.15625 
Q 77.34375 69.53125 79.6875 68.9375 
Q 82.03125 68.359375 85.15625 66.203125 
Q 88.28125 64.0625 84.375 62.6875 
Q 80.46875 61.328125 69.53125 49.609375 
Q 73.4375 50.390625 75.96875 51.75 
Q 78.515625 53.125 81.25 51.953125 
Q 83.984375 50.78125 86.71875 48.828125 
Q 89.453125 46.875 88.078125 44.921875 
Q 86.71875 42.96875 87.296875 31.046875 
Q 87.890625 19.140625 88.671875 10.734375 
Q 89.453125 2.34375 85.734375 -4.09375 
Q 82.03125 -10.546875 80.078125 -5.65625 
Q 78.125 -0.78125 74.609375 1.75 
Q 71.09375 4.296875 75.390625 3.3125 
Q 79.6875 2.34375 80.859375 3.3125 
Q 82.03125 4.296875 82.421875 8.203125 
Q 82.8125 12.109375 82.609375 19.921875 
Q 82.421875 27.734375 82.03125 34.171875 
Q 81.640625 40.625 80.265625 44.140625 
Q 78.90625 47.65625 76.953125 47.84375 
Q 75 48.046875 68.359375 46.484375 
Q 69.921875 44.53125 69.53125 43.359375 
Q 69.140625 42.1875 69.140625 35.546875 
Q 71.484375 35.9375 74.609375 36.125 
Q 77.734375 36.328125 77.734375 35.15625 
Q 77.734375 34.375 75 33.203125 
Q 72.265625 32.03125 69.140625 31.25 
L 69.140625 24.609375 
Q 72.265625 25.390625 74.609375 25.578125 
Q 76.953125 25.78125 78.125 24.609375 
Q 79.296875 23.4375 76.359375 22.265625 
Q 73.4375 21.09375 69.140625 19.921875 
Q 69.140625 9.765625 68.75 6.25 
Q 68.359375 2.734375 67.1875 1.5625 
Q 66.015625 0.390625 65.421875 4.296875 
Q 64.84375 8.203125 64.84375 19.140625 
Q 59.375 18.75 57.21875 19.921875 
Q 55.078125 21.09375 57.21875 21.671875 
Q 59.375 22.265625 64.84375 23.828125 
L 64.84375 29.6875 
Q 60.15625 29.6875 57.8125 30.65625 
Q 55.46875 31.640625 57.609375 32.421875 
Q 59.765625 33.203125 64.84375 34.375 
Q 64.84375 42.1875 62.890625 44.921875 
Q 59.375 44.53125 53.125 42.96875 
Q 53.515625 33.984375 52.734375 24.609375 
Q 51.953125 15.234375 49.015625 8.984375 
Q 46.09375 2.734375 39.453125 -0.578125 
Q 32.8125 -3.90625 37.890625 0.390625 
Q 42.96875 4.6875 45.703125 13.078125 
Q 48.4375 21.484375 48.828125 30.859375 
Q 49.21875 40.234375 47.265625 43.546875 
Q 45.3125 46.875 47.65625 46.484375 
Q 50 46.09375 51.75 45.703125 
Q 53.515625 45.3125 66.015625 48.828125 
Q 70.3125 55.078125 72.265625 58.78125 
Q 74.21875 62.5 72.65625 62.5 
Q 71.09375 62.5 68.359375 61.90625 
Q 65.625 61.328125 61.71875 62.890625 
z
M 31.25 58.59375 
Q 32.8125 57.421875 33.984375 56.25 
Q 35.15625 55.078125 33.984375 53.3125 
Q 32.8125 51.5625 31.046875 48.4375 
Q 29.296875 45.3125 26.171875 39.84375 
Q 31.640625 40.625 33.59375 42.1875 
Q 35.546875 43.75 37.890625 42.578125 
Q 40.234375 41.40625 42.578125 39.84375 
Q 44.921875 38.28125 42.375 36.71875 
Q 39.84375 35.15625 36.71875 27.734375 
Q 39.84375 24.609375 37.6875 24.40625 
Q 35.546875 24.21875 33 23.828125 
Q 30.46875 23.4375 23.828125 22.265625 
Q 22.65625 16.40625 21.671875 16.796875 
Q 20.703125 17.1875 20.109375 21.671875 
Q 19.53125 26.171875 19.140625 29.296875 
Q 12.109375 21.09375 6.828125 18.359375 
Q 1.5625 15.625 4.875 18.75 
Q 8.203125 21.875 11.90625 25.96875 
Q 15.625 30.078125 18.75 35.546875 
Q 17.578125 37.5 17.578125 38.671875 
Q 17.578125 40.234375 20.703125 39.0625 
Q 25 46.484375 26.5625 50.78125 
Q 28.125 55.078125 28.515625 58.203125 
Q 20.703125 57.8125 18.546875 59.171875 
Q 16.40625 60.546875 20.5 61.515625 
Q 24.609375 62.5 30.078125 63.671875 
Q 35.546875 64.84375 39.640625 66.015625 
Q 43.75 67.1875 46.28125 65.625 
Q 48.828125 64.0625 45.890625 62.6875 
Q 42.96875 61.328125 39.25 60.546875 
Q 35.546875 59.765625 31.25 58.59375 
z
M 23.828125 25 
Q 28.515625 26.171875 33.203125 27.734375 
Q 34.375 34.375 34.375 36.71875 
Q 34.375 39.0625 29.875 38.078125 
Q 25.390625 37.109375 23.828125 36.71875 
L 23.828125 25 
z
" id="KaiTi-30830"/>
      <path d="M 55.859375 40.625 
Q 53.90625 43.359375 52.921875 45.3125 
Q 51.953125 47.265625 54.875 46.484375 
Q 57.8125 45.703125 59.765625 44.53125 
Q 61.71875 43.359375 62.6875 41.015625 
Q 63.671875 38.671875 62.6875 36.328125 
Q 61.71875 33.984375 60.15625 34.953125 
Q 58.59375 35.9375 57.421875 37.890625 
Q 52.34375 36.71875 48.828125 35.9375 
Q 52.34375 34.765625 53.90625 33.78125 
Q 55.46875 32.8125 54.484375 31.828125 
Q 53.515625 30.859375 53.125 25.78125 
Q 60.15625 26.171875 70.5 27.34375 
Q 80.859375 28.515625 84.171875 29.296875 
Q 87.5 30.078125 90.625 28.3125 
Q 93.75 26.5625 94.328125 24.796875 
Q 94.921875 23.046875 87.5 23.234375 
Q 80.078125 23.4375 72.453125 22.84375 
Q 64.84375 22.265625 53.125 21.875 
Q 52.734375 13.28125 52.34375 6.25 
Q 51.953125 -0.78125 51.171875 -5.65625 
Q 50.390625 -10.546875 49.21875 -10.9375 
Q 48.046875 -11.328125 47.65625 -3.515625 
Q 47.265625 4.296875 47.265625 21.484375 
Q 34.765625 20.3125 29.484375 19.53125 
Q 24.21875 18.75 20.890625 18.15625 
Q 17.578125 17.578125 14.84375 17.96875 
Q 12.109375 18.359375 9.375 20.5 
Q 6.640625 22.65625 12.109375 22.453125 
Q 17.578125 22.265625 27.34375 23.234375 
Q 37.109375 24.21875 47.265625 25.390625 
Q 47.265625 32.421875 46.09375 35.15625 
Q 39.84375 33.59375 37.6875 31.640625 
Q 35.546875 29.6875 33.984375 33.390625 
Q 32.421875 37.109375 36.328125 38.46875 
Q 40.234375 39.84375 48.828125 51.171875 
Q 41.015625 49.609375 38.28125 47.65625 
Q 35.546875 45.703125 34.5625 49.21875 
Q 33.59375 52.734375 35.734375 53.515625 
Q 37.890625 54.296875 40.234375 57.8125 
Q 42.578125 61.328125 42.96875 65.234375 
Q 38.28125 64.453125 36.125 64.0625 
Q 33.984375 63.671875 30.859375 65.8125 
Q 27.734375 67.96875 32.8125 67.96875 
Q 37.890625 67.96875 51.171875 70.3125 
L 45.3125 76.171875 
Q 41.796875 79.6875 44.921875 79.6875 
Q 48.4375 79.6875 51.953125 77.53125 
Q 55.46875 75.390625 52.34375 71.09375 
Q 60.15625 72.65625 63.671875 73.625 
Q 67.1875 74.609375 69.328125 72.453125 
Q 71.484375 70.3125 67.375 69.53125 
Q 63.28125 68.75 47.65625 66.40625 
Q 50.390625 62.5 48.4375 61.328125 
Q 46.484375 60.15625 41.015625 53.125 
Q 43.359375 53.125 50.390625 53.515625 
Q 53.515625 58.203125 53.3125 60.9375 
Q 53.125 63.671875 55.859375 62.5 
Q 58.59375 61.328125 60.34375 59.375 
Q 62.109375 57.421875 59.5625 56.25 
Q 57.03125 55.078125 43.359375 38.28125 
Q 50.78125 39.84375 55.859375 40.625 
z
M 71.09375 42.578125 
Q 68.359375 44.921875 65.625 48.234375 
Q 62.890625 51.5625 69.140625 49.609375 
Q 75.390625 47.65625 77.921875 44.921875 
Q 80.46875 42.1875 79.484375 39.453125 
Q 78.515625 36.71875 76.171875 38.46875 
Q 73.828125 40.234375 71.09375 42.578125 
z
M 23.4375 43.359375 
Q 27.34375 45.3125 30.078125 47.0625 
Q 32.8125 48.828125 30.65625 46.09375 
Q 28.515625 43.359375 25.96875 40.421875 
Q 23.4375 37.5 22.265625 34.765625 
Q 21.09375 32.03125 17.765625 36.515625 
Q 14.453125 41.015625 17.1875 41.203125 
Q 19.921875 41.40625 23.4375 43.359375 
z
M 78.90625 62.5 
Q 81.25 60.9375 78.3125 59.765625 
Q 75.390625 58.59375 73.234375 57.21875 
Q 71.09375 55.859375 67.765625 54.09375 
Q 64.453125 52.34375 67.96875 56.828125 
Q 71.484375 61.328125 71.09375 63.671875 
Q 70.703125 66.015625 73.625 65.234375 
Q 76.5625 64.453125 78.90625 62.5 
z
M 21.484375 53.515625 
Q 20.3125 55.46875 19.328125 57.421875 
Q 18.359375 59.375 22.265625 58.390625 
Q 26.171875 57.421875 27.734375 55.46875 
Q 29.296875 53.515625 28.125 50.78125 
Q 26.953125 48.046875 25 50 
L 21.484375 53.515625 
z
" id="KaiTi-29575"/>
     </defs>
     <g transform="translate(40.75 281.52)rotate(-90)scale(0.18 -0.18)">
      <use xlink:href="#KaiTi-20934"/>
      <use x="100" xlink:href="#KaiTi-30830"/>
      <use x="200" xlink:href="#KaiTi-29575"/>
     </g>
    </g>
   </g>
   <g id="line2d_13">
    <path clip-path="url(#pe87e10654a)" d="M 103.827273 430.92 
L 125.567532 316.498385 
L 147.307792 283.125407 
L 169.048052 259.28757 
L 190.788312 235.449749 
L 212.528571 179.828129 
L 234.268831 165.525402 
L 256.009091 143.276761 
L 277.749351 128.974064 
L 299.48961 138.509205 
L 321.22987 132.152455 
L 342.97013 119.438924 
L 364.71039 119.438924 
L 386.450649 105.136227 
L 408.190909 103.547032 
L 429.931169 117.849728 
L 451.671429 108.314618 
L 473.411688 98.779477 
L 495.151948 78.12 
L 516.892208 100.368672 
L 538.632468 95.601087 
L 560.372727 79.709195 
" style="fill:none;stroke:#1f77b4;stroke-linecap:square;stroke-width:1.5;"/>
   </g>
   <g id="line2d_14">
    <defs>
     <path d="M -3 3 
L 3 3 
L 3 -3 
L -3 -3 
z
" id="mf3932cb923" style="stroke:#ff7f0e;stroke-linejoin:miter;"/>
    </defs>
    <g clip-path="url(#pe87e10654a)">
     <use style="fill:#ff7f0e;stroke:#ff7f0e;stroke-linejoin:miter;" x="103.827273" xlink:href="#mf3932cb923" y="430.92"/>
     <use style="fill:#ff7f0e;stroke:#ff7f0e;stroke-linejoin:miter;" x="125.567532" xlink:href="#mf3932cb923" y="316.498385"/>
     <use style="fill:#ff7f0e;stroke:#ff7f0e;stroke-linejoin:miter;" x="147.307792" xlink:href="#mf3932cb923" y="283.125407"/>
     <use style="fill:#ff7f0e;stroke:#ff7f0e;stroke-linejoin:miter;" x="169.048052" xlink:href="#mf3932cb923" y="259.28757"/>
     <use style="fill:#ff7f0e;stroke:#ff7f0e;stroke-linejoin:miter;" x="190.788312" xlink:href="#mf3932cb923" y="235.449749"/>
     <use style="fill:#ff7f0e;stroke:#ff7f0e;stroke-linejoin:miter;" x="212.528571" xlink:href="#mf3932cb923" y="179.828129"/>
     <use style="fill:#ff7f0e;stroke:#ff7f0e;stroke-linejoin:miter;" x="234.268831" xlink:href="#mf3932cb923" y="165.525402"/>
     <use style="fill:#ff7f0e;stroke:#ff7f0e;stroke-linejoin:miter;" x="256.009091" xlink:href="#mf3932cb923" y="143.276761"/>
     <use style="fill:#ff7f0e;stroke:#ff7f0e;stroke-linejoin:miter;" x="277.749351" xlink:href="#mf3932cb923" y="128.974064"/>
     <use style="fill:#ff7f0e;stroke:#ff7f0e;stroke-linejoin:miter;" x="299.48961" xlink:href="#mf3932cb923" y="138.509205"/>
     <use style="fill:#ff7f0e;stroke:#ff7f0e;stroke-linejoin:miter;" x="321.22987" xlink:href="#mf3932cb923" y="132.152455"/>
     <use style="fill:#ff7f0e;stroke:#ff7f0e;stroke-linejoin:miter;" x="342.97013" xlink:href="#mf3932cb923" y="119.438924"/>
     <use style="fill:#ff7f0e;stroke:#ff7f0e;stroke-linejoin:miter;" x="364.71039" xlink:href="#mf3932cb923" y="119.438924"/>
     <use style="fill:#ff7f0e;stroke:#ff7f0e;stroke-linejoin:miter;" x="386.450649" xlink:href="#mf3932cb923" y="105.136227"/>
     <use style="fill:#ff7f0e;stroke:#ff7f0e;stroke-linejoin:miter;" x="408.190909" xlink:href="#mf3932cb923" y="103.547032"/>
     <use style="fill:#ff7f0e;stroke:#ff7f0e;stroke-linejoin:miter;" x="429.931169" xlink:href="#mf3932cb923" y="117.849728"/>
     <use style="fill:#ff7f0e;stroke:#ff7f0e;stroke-linejoin:miter;" x="451.671429" xlink:href="#mf3932cb923" y="108.314618"/>
     <use style="fill:#ff7f0e;stroke:#ff7f0e;stroke-linejoin:miter;" x="473.411688" xlink:href="#mf3932cb923" y="98.779477"/>
     <use style="fill:#ff7f0e;stroke:#ff7f0e;stroke-linejoin:miter;" x="495.151948" xlink:href="#mf3932cb923" y="78.12"/>
     <use style="fill:#ff7f0e;stroke:#ff7f0e;stroke-linejoin:miter;" x="516.892208" xlink:href="#mf3932cb923" y="100.368672"/>
     <use style="fill:#ff7f0e;stroke:#ff7f0e;stroke-linejoin:miter;" x="538.632468" xlink:href="#mf3932cb923" y="95.601087"/>
     <use style="fill:#ff7f0e;stroke:#ff7f0e;stroke-linejoin:miter;" x="560.372727" xlink:href="#mf3932cb923" y="79.709195"/>
    </g>
   </g>
   <g id="patch_3">
    <path d="M 81 448.56 
L 81 60.48 
" style="fill:none;stroke:#000000;stroke-linecap:square;stroke-linejoin:miter;stroke-width:0.8;"/>
   </g>
   <g id="patch_4">
    <path d="M 583.2 448.56 
L 583.2 60.48 
" style="fill:none;stroke:#000000;stroke-linecap:square;stroke-linejoin:miter;stroke-width:0.8;"/>
   </g>
   <g id="patch_5">
    <path d="M 81 448.56 
L 583.2 448.56 
" style="fill:none;stroke:#000000;stroke-linecap:square;stroke-linejoin:miter;stroke-width:0.8;"/>
   </g>
   <g id="patch_6">
    <path d="M 81 60.48 
L 583.2 60.48 
" style="fill:none;stroke:#000000;stroke-linecap:square;stroke-linejoin:miter;stroke-width:0.8;"/>
   </g>
   <g id="legend_1">
    <g id="patch_7">
     <path d="M 93.6 100.614375 
L 241.2 100.614375 
Q 244.8 100.614375 244.8 97.014375 
L 244.8 73.08 
Q 244.8 69.48 241.2 69.48 
L 93.6 69.48 
Q 90 69.48 90 73.08 
L 90 97.014375 
Q 90 100.614375 93.6 100.614375 
z
" style="fill:#ffffff;opacity:0.8;stroke:#cccccc;stroke-linejoin:miter;"/>
    </g>
    <g id="line2d_15">
     <path d="M 97.2 84.864375 
L 133.2 84.864375 
" style="fill:none;stroke:#1f77b4;stroke-linecap:square;stroke-width:1.5;"/>
    </g>
    <g id="line2d_16"/>
    <g id="text_15">
     <!-- 训练准确率 -->
     <defs>
      <path d="M 84.375 72.65625 
Q 87.890625 70.703125 86.328125 68.75 
Q 84.765625 66.796875 84.765625 58.984375 
L 84.765625 5.859375 
Q 84.765625 1.953125 84.171875 -3.515625 
Q 83.59375 -8.984375 81.828125 -7.03125 
Q 80.078125 -5.078125 79.09375 -1.171875 
Q 78.125 2.734375 79.09375 6.640625 
Q 80.078125 10.546875 80.078125 29.6875 
Q 80.078125 49.21875 79.875 58.78125 
Q 79.6875 68.359375 77.53125 72.0625 
Q 75.390625 75.78125 78.125 75.390625 
Q 80.859375 75 84.375 72.65625 
z
M 28.125 18.75 
Q 41.015625 25.390625 41.796875 25.390625 
Q 42.578125 25.390625 35.9375 19.53125 
Q 29.296875 13.671875 25.78125 8.390625 
Q 22.265625 3.125 20.5 7.609375 
Q 18.75 12.109375 20.3125 14.0625 
Q 21.875 16.015625 23.046875 18.9375 
Q 24.21875 21.875 24.796875 31.25 
Q 25.390625 40.625 25.578125 42.765625 
Q 25.78125 44.921875 21.671875 43.359375 
Q 17.578125 41.796875 15.03125 40.625 
Q 12.5 39.453125 8.984375 41.203125 
Q 5.46875 42.96875 9.171875 43.546875 
Q 12.890625 44.140625 17.96875 45.890625 
Q 23.046875 47.65625 24.796875 49.796875 
Q 26.5625 51.953125 31.046875 49.796875 
Q 35.546875 47.65625 33.59375 46.09375 
Q 31.640625 44.53125 30.65625 41.40625 
Q 29.6875 38.28125 29.09375 31.046875 
Q 28.515625 23.828125 28.125 18.75 
z
M 51.5625 62.5 
Q 55.46875 60.9375 54.09375 58.390625 
Q 52.734375 55.859375 52.734375 39.84375 
Q 52.734375 24.21875 49.21875 16.203125 
Q 45.703125 8.203125 39.453125 4.484375 
Q 33.203125 0.78125 37.5 5.65625 
Q 41.796875 10.546875 44.53125 16.984375 
Q 47.265625 23.4375 47.84375 35.546875 
Q 48.4375 47.65625 48.046875 53.90625 
Q 47.65625 60.15625 46.09375 62.296875 
Q 44.53125 64.453125 46.09375 64.453125 
Q 48.046875 64.453125 51.5625 62.5 
z
M 67.578125 58.59375 
Q 70.3125 57.421875 69.140625 54.875 
Q 67.96875 52.34375 67.96875 45.703125 
L 67.96875 21.875 
Q 67.96875 18.75 67.1875 14.84375 
Q 66.40625 10.9375 64.0625 15.625 
Q 61.71875 20.3125 62.5 23.828125 
Q 63.28125 27.34375 63.28125 35.15625 
Q 63.28125 43.359375 63.078125 49.40625 
Q 62.890625 55.46875 61.71875 58.203125 
Q 60.546875 60.9375 62.6875 60.546875 
Q 64.84375 60.15625 67.578125 58.59375 
z
M 25.390625 73.4375 
Q 31.25 73.046875 34.375 71.09375 
Q 37.5 69.140625 36.71875 64.640625 
Q 35.9375 60.15625 27.734375 66.984375 
Q 19.53125 73.828125 25.390625 73.4375 
z
" id="KaiTi-35757"/>
      <path d="M 64.84375 58.984375 
Q 75.390625 60.546875 78.90625 61.71875 
Q 82.421875 62.890625 86.125 60.34375 
Q 89.84375 57.8125 81.25 56.828125 
Q 72.65625 55.859375 63.671875 54.6875 
Q 61.328125 49.609375 58.984375 44.921875 
Q 64.84375 46.09375 66.015625 46.484375 
Q 67.1875 46.875 70.703125 45.5 
Q 74.21875 44.140625 73.234375 42.375 
Q 72.265625 40.625 71.484375 33.984375 
Q 79.296875 35.15625 83 35.9375 
Q 86.71875 36.71875 89.84375 34.375 
Q 92.96875 32.03125 88.671875 31.640625 
L 71.484375 30.078125 
Q 71.09375 21.09375 71.28125 16.796875 
Q 71.484375 12.5 71.484375 6.25 
Q 71.484375 0 67.96875 -4.6875 
Q 64.453125 -9.375 62.6875 -5.859375 
Q 60.9375 -2.34375 55.859375 1.359375 
Q 50.78125 5.078125 55.46875 4.09375 
Q 60.15625 3.125 62.109375 3.125 
Q 64.0625 3.125 65.234375 6.25 
Q 66.40625 9.375 66.40625 15.625 
L 66.40625 29.6875 
Q 53.125 28.125 50 25.96875 
Q 46.875 23.828125 45.109375 27.140625 
Q 43.359375 30.46875 45.890625 31.640625 
Q 48.4375 32.8125 52.734375 41.40625 
Q 48.4375 39.84375 45.703125 41.984375 
Q 42.96875 44.140625 45.703125 44.140625 
Q 48.828125 44.140625 53.90625 44.53125 
Q 55.859375 46.875 58.59375 54.296875 
Q 55.46875 53.90625 51.953125 53.125 
Q 48.4375 52.34375 45.109375 54.484375 
Q 41.796875 56.640625 46.484375 56.828125 
Q 51.171875 57.03125 59.765625 58.59375 
Q 64.0625 70.703125 62.6875 74.609375 
Q 61.328125 78.515625 64.640625 77.140625 
Q 67.96875 75.78125 70.3125 74.21875 
Q 72.65625 72.65625 70.703125 70.5 
Q 68.75 68.359375 64.84375 58.984375 
z
M 29.6875 48.828125 
Q 35.546875 55.859375 34.953125 59.375 
Q 34.375 62.890625 37.5 61.125 
Q 40.625 59.375 42.1875 57.609375 
Q 43.75 55.859375 41.59375 54.6875 
Q 39.453125 53.515625 34.375 47.453125 
Q 29.296875 41.40625 27.34375 38.859375 
Q 25.390625 36.328125 23.046875 33.984375 
Q 20.703125 31.640625 22.65625 31.640625 
Q 24.609375 31.640625 25.78125 31.640625 
L 30.078125 32.421875 
Q 32.8125 32.8125 37.5 32.8125 
Q 42.578125 32.8125 36.71875 30.859375 
Q 30.859375 28.90625 25.1875 27.53125 
Q 19.53125 26.171875 16.984375 24.40625 
Q 14.453125 22.65625 12.890625 26.171875 
Q 11.328125 29.6875 14.84375 31.046875 
Q 18.359375 32.421875 28.125 46.484375 
Q 16.40625 44.921875 14.84375 44.140625 
Q 13.28125 43.359375 11.71875 45.890625 
Q 10.15625 48.4375 13.28125 49.609375 
Q 16.40625 50.78125 18.359375 53.90625 
Q 20.3125 57.03125 23.828125 64.25 
Q 27.34375 71.484375 26.5625 75.1875 
Q 25.78125 78.90625 29.09375 77.140625 
Q 32.421875 75.390625 34.171875 73.625 
Q 35.9375 71.875 33.59375 70.109375 
Q 31.25 68.359375 28.125 63.078125 
Q 25 57.8125 19.921875 49.21875 
z
M 30.46875 18.359375 
Q 46.484375 23.828125 39.640625 20.109375 
Q 32.8125 16.40625 26.953125 13.078125 
Q 21.09375 9.765625 17.96875 7.421875 
Q 14.84375 5.078125 10.546875 9.171875 
Q 6.25 13.28125 10.15625 13.28125 
Q 14.453125 13.28125 30.46875 18.359375 
z
M 41.40625 3.515625 
Q 39.84375 8.203125 43.15625 10.734375 
Q 46.484375 13.28125 49.796875 18.75 
Q 53.125 24.21875 52.34375 17.375 
Q 51.5625 10.546875 47.453125 4.875 
Q 43.359375 -0.78125 41.40625 3.515625 
z
M 66.40625 33.59375 
Q 66.796875 40.625 65.03125 41.59375 
Q 63.28125 42.578125 57.421875 41.40625 
Q 53.90625 34.375 52.921875 33 
Q 51.953125 31.640625 54.875 32.03125 
Q 57.8125 32.421875 66.40625 33.59375 
z
M 80.46875 17.578125 
Q 76.5625 23.828125 83.203125 20.5 
Q 89.84375 17.1875 91.203125 14.25 
Q 92.578125 11.328125 91.59375 7.8125 
Q 90.625 4.296875 87.5 7.8125 
Q 84.375 11.328125 80.46875 17.578125 
z
" id="KaiTi-32451"/>
     </defs>
     <g transform="translate(147.6 91.164375)scale(0.18 -0.18)">
      <use xlink:href="#KaiTi-35757"/>
      <use x="100" xlink:href="#KaiTi-32451"/>
      <use x="200" xlink:href="#KaiTi-20934"/>
      <use x="300" xlink:href="#KaiTi-30830"/>
      <use x="400" xlink:href="#KaiTi-29575"/>
     </g>
    </g>
   </g>
  </g>
 </g>
 <defs>
  <clipPath id="pe87e10654a">
   <rect height="388.08" width="502.2" x="81" y="60.48"/>
  </clipPath>
 </defs>
</svg>
